#!OML:ASF F:\VICON\USERDATA\INSTALL\rory3\rory3.ASF
:FULLY-SPECIFIED
:DEGREES
153
root 0.741266 16.4924 -17.5577 8.30218 5.18259 -0.20671
lowerback 26.199 -0.0608831 0.00447529
upperback 2.00952 0.266869 2.49931
thorax -12.4068 0.213814 2.74597
lowerneck -25.1895 -5.12412 -8.19109
upperneck 0.166666 -5.14105 10.1659
head 4.44327 -1.8832 4.00934
rclavicle -5.76476e-015 3.97569e-015
rhumerus -19.4978 6.78189 -47.2056
rradius 122.098
rwrist -4.18308
rhand -16.3651 25.0139
rfingers 7.12502
rthumb 9.84796 -4.73581
lclavicle -5.76476e-015 3.97569e-015
lhumerus -3.06483 4.2298 50.7809
lradius 124.14
lwrist 2.02807
lhand -27.4066 17.2201
lfingers 7.12502
lthumb -0.812803 47.1983
rfemur -33.7302 -5.6402 21.8723
rtibia 57.9092
rfoot -20.9873 -11.1835
rtoes -7.60054
lfemur -37.2045 -1.48679 -16.1567
ltibia 58.1724
lfoot -19.5822 -1.68882
ltoes -13.1404
154
root 0.748349 16.7492 -17.4459 7.80383 4.91953 -0.151258
lowerback 25.4162 0.103374 -0.223375
upperback 1.77822 0.413323 2.5341
thorax -12.2608 0.294239 2.85758
lowerneck -24.0787 -5.02552 -8.47618
upperneck 0.662297 -5.04525 10.1546
head 4.44161 -1.86465 4.06546
rclavicle -1.45113e-014 3.97569e-015
rhumerus -20.8806 8.87768 -45.4999
rradius 122.741
rwrist -2.39509
rhand -15.8704 24.3313
rfingers 7.12502
rthumb 10.3252 -5.39521
lclavicle -1.45113e-014 3.97569e-015
lhumerus -3.66164 3.22197 48.4169
lradius 124.347
lwrist 2.27278
lhand -28.5061 17.6499
lfingers 7.12502
lthumb -1.87466 47.6214
rfemur -30.9715 -5.96203 21.643
rtibia 54.4391
rfoot -19.0217 -9.93228
rtoes -8.32296
lfemur -34.2724 -1.38726 -16.3071
ltibia 54.5013
lfoot -17.5212 -1.95784
ltoes -14.3264
155
root 0.760238 17.0189 -17.3214 7.40107 4.52233 -0.0927521
lowerback 24.4654 0.276015 -0.353743
upperback 1.4465 0.595724 2.5211
thorax -12.1364 0.385522 2.84801
lowerneck -22.7027 -4.97441 -8.9525
upperneck 1.21756 -5.00534 10.2955
head 4.43236 -1.87323 4.19705
rclavicle 8.94531e-015 2.38542e-015
rhumerus -22.5803 11.3282 -44.3322
rradius 123.214
rwrist -0.0206197
rhand -15.2448 23.054
rfingers 7.12502
rthumb 10.9286 -6.6416
lclavicle 8.94531e-015 2.38542e-015
lhumerus -4.53385 1.6446 46.2869
lradius 124.201
lwrist 3.04898
lhand -29.4238 17.5169
lfingers 7.12502
lthumb -2.761 47.4788
rfemur -28.2521 -6.22354 21.37
rtibia 50.8555
rfoot -16.772 -8.70787
rtoes -11.3451
lfemur -31.1803 -1.07391 -16.5032
ltibia 50.6416
lfoot -15.7055 -2.73212
ltoes -16.8359
156
root 0.774507 17.3061 -17.1837 7.12605 4.0163 -0.00942621
lowerback 23.0911 0.445779 -0.456335
upperback 1.23477 0.779814 2.51404
thorax -11.6353 0.472334 2.82621
lowerneck -21.5988 -4.90991 -9.52607
upperneck 1.79701 -4.91357 10.444
head 4.46224 -1.85124 4.35254
rclavicle 2.98177e-015 9.54166e-015
rhumerus -24.0318 14.1322 -43.5811
rradius 123.295
rwrist 2.70031
rhand -16.8125 24.4766
rfingers 7.12502
rthumb 9.41628 -5.29301
lclavicle 2.98177e-015 9.54166e-015
lhumerus -5.57697 -0.0648355 44.4843
lradius 123.81
lwrist 3.89559
lhand -29.7132 17.4881
lfingers 7.12502
lthumb -3.04045 47.4461
rfemur -25.6595 -6.37257 21.0446
rtibia 47.1528
rfoot -13.7247 -7.33263
rtoes -12.428
lfemur -28.0731 -0.713192 -16.6978
ltibia 46.5558
lfoot -13.443 -4.00029
ltoes -16.5138
157
root 0.793559 17.6121 -17.0347 6.85312 3.53307 -0.0765943
lowerback 21.6184 0.567475 -0.230546
upperback 1.06143 0.983097 2.50085
thorax -11.0247 0.550783 2.60869
lowerneck -20.8774 -4.75955 -10.0556
upperneck 2.60467 -4.70632 10.5556
head 4.60187 -1.76475 4.50077
rclavicle 2.5842e-015 -1.59028e-015
rhumerus -25.7223 17.0034 -43.4465
rradius 122.864
rwrist 5.08686
rhand -17.4472 24.0448
rfingers 7.12502
rthumb 8.80384 -5.75157
lclavicle 2.5842e-015 -1.59028e-015
lhumerus -6.93724 -2.08458 42.973
lradius 123.307
lwrist 4.49036
lhand -29.628 17.4246
lfingers 7.12502
lthumb -2.95821 47.3839
rfemur -23.0473 -6.48564 20.8141
rtibia 43.3399
rfoot -10.0913 -5.55892
rtoes -11.0691
lfemur -24.8996 -0.450319 -16.7107
ltibia 42.2222
lfoot -10.2341 -4.80715
ltoes -19.7596
158
root 0.817627 17.9288 -16.8884 6.62672 2.98374 -0.12637
lowerback 20.3031 0.758507 0.175437
upperback 0.780665 1.30183 2.3437
thorax -10.6111 0.674557 2.10623
lowerneck -19.9755 -4.63791 -10.0711
upperneck 3.44414 -4.65963 10.3421
head 4.71506 -1.77752 4.44396
rclavicle 3.57812e-015 1.59028e-015
rhumerus -28.1194 19.6361 -44.1257
rradius 122.187
rwrist 6.23033
rhand -16.8746 24.0483
rfingers 7.12502
rthumb 9.35634 -5.7241
lclavicle 3.57812e-015 1.59028e-015
lhumerus -8.30799 -4.67481 41.8474
lradius 122.517
lwrist 4.70917
lhand -29.0423 17.0126
lfingers 7.12502
lthumb -2.39255 46.9789
rfemur -20.5909 -6.43395 20.4663
rtibia 39.461
rfoot -5.94148 -3.73325
rtoes -9.42317
lfemur -21.7417 -0.377686 -16.7394
ltibia 37.6736
lfoot -6.43565 -5.18712
ltoes -20.1543
159
root 0.846652 18.2523 -16.7427 6.41915 2.25281 -0.0435757
lowerback 18.8737 1.01123 0.459535
upperback 0.628503 1.66156 2.18306
thorax -9.98152 0.826285 1.67404
lowerneck -19.2513 -4.54569 -10.0543
upperneck 4.16416 -4.62067 10.0028
head 4.81207 -1.79771 4.34009
rclavicle 3.97569e-015 -1.03368e-014
rhumerus -30.5414 22 -45.2688
rradius 121.379
rwrist 6.5082
rhand -16.3951 24.1134
rfingers 7.12502
rthumb 9.81901 -5.63771
lclavicle 3.97569e-015 -1.03368e-014
lhumerus -9.62735 -7.09466 41.3079
lradius 121.56
lwrist 4.54223
lhand -27.0467 16.5009
lfingers 7.12502
lthumb -0.465178 46.4802
rfemur -18.2947 -6.32936 19.8935
rtibia 35.5931
rfoot -1.1723 -2.0815
rtoes -7.24644
lfemur -18.6873 -0.622352 -16.8763
ltibia 33.0122
lfoot -1.65625 -5.19267
ltoes -19.2518
